<svg width="48" height="48" viewBox="0 0 48 48" fill="none" xmlns="http://www.w3.org/2000/svg">
<path d="M14.6326 14.816C13.7148 13.8973 12.4432 13.3706 11.1443 13.3706H8.05492C7.92315 13.3706 7.80002 13.3396 7.68377 13.2958M14.6326 14.816V33.184C13.7148 34.1025 12.4432 34.6291 11.1443 34.6291H8.05492C7.92315 34.6291 7.80001 34.6602 7.68355 34.704M14.6326 14.816L21.8591 22.0424L14.6326 14.816ZM7.68377 13.2958L2.13587 18.8437C-0.711955 21.6915 -0.711955 26.3084 2.13587 29.1563L7.68355 34.704M7.68377 13.2958L7.1198 14.7931C7.34821 14.8791 7.66912 14.9706 8.05492 14.9706H8.27167M7.68377 13.2958L8.05492 13.667L8.81514 14.4272L8.27167 14.9706M7.68355 34.704L8.05492 34.3326L8.81492 33.5726L8.27146 33.0291M7.68355 34.704L7.12062 33.2063C7.34836 33.1207 7.66909 33.0291 8.05492 33.0291H8.27146M8.27146 33.0291H11.1443C12.019 33.0291 12.8833 32.671 13.5008 32.053L13.5012 32.0526L20.727 24.8268L20.7275 24.8264C21.0578 24.4964 21.4278 24.2228 21.8241 24.0056M8.27146 33.0291L3.26724 28.0249C1.04425 25.8019 1.04425 22.1981 3.26724 19.9751L8.27167 14.9706M21.8241 24.0056C21.4313 23.7849 21.0619 23.5078 20.728 23.1742L20.7277 23.1738L13.5012 15.9474L13.5007 15.9469C12.8832 15.3288 12.019 14.9706 11.1443 14.9706H8.27167M21.8241 24.0056C22.5917 24.437 23.4484 24.6526 24.3025 24.6526C25.1559 24.6526 26.0126 24.437 26.7804 24.0056M21.8241 24.0056C22.5857 23.5883 23.4441 23.3794 24.3025 23.3794C25.1607 23.3793 26.0189 23.588 26.7804 24.0056M26.7804 24.0056C27.1735 23.7847 27.5432 23.5072 27.8773 23.1731L27.8773 23.1731L35.0766 15.9737L35.0769 15.9733C35.6946 15.3552 36.559 14.997 37.4335 14.997H39.7549L44.733 19.9751C44.733 19.9751 44.7331 19.9751 44.7331 19.9751C46.9558 22.198 46.9558 25.8019 44.7331 28.0249C44.733 28.0249 44.733 28.0249 44.733 28.0249L39.7549 33.003H37.4335C36.559 33.003 35.6946 32.6448 35.0769 32.0267L35.0765 32.0262L27.8779 24.828L26.7459 25.9588L27.8773 24.8274C27.5469 24.4968 27.1767 24.2229 26.7804 24.0056ZM17.2618 12.1869L17.2615 12.1865C16.1541 11.0796 14.7951 10.3087 13.315 9.92749L19.9752 3.26724L19.9753 3.2672C22.198 1.04433 25.8019 1.04419 28.0252 3.26722C28.0252 3.26724 28.0252 3.26726 28.0253 3.26728L34.834 10.0762C33.5204 10.4884 32.3159 11.2138 31.3163 12.2128L31.316 12.2132L24.3017 19.228L17.2618 12.1869ZM31.3164 35.7871C32.316 36.7862 33.5205 37.5116 34.8342 37.9237L28.0252 44.7329C28.0252 44.7329 28.0251 44.7329 28.0251 44.7329C25.8021 46.9557 22.198 46.9556 19.9753 44.7329L18.844 45.8643L19.9753 44.7329L13.3148 38.0725C14.795 37.6913 16.1541 36.9203 17.2616 35.8134L17.2619 35.8131L24.3021 28.7726L31.3161 35.7868L31.3164 35.7871Z" stroke="#18161F" stroke-width="3.2" stroke-linejoin="round"/>
</svg>
